<svg width="512" height="512" style="height: 512px; width: 512px;" xmlns="http://www.w3.org/2000/svg" viewBox="0 0 512 512"><g class="" style="" transform="translate(-70,0)"><g transform="translate(0, 0) scale(1.4, 1.4) rotate(15, 256, 256) skewX(0) skewY(0)"><path d="M274.3 38.3C269.1 59.13 265.2 75.82 253.1 88.6C230.2 113 194.6 127.5 138.1 111.6C123.1 107.4 110 96.32 96.64 79.9L82.68 91.28C97.19 109.1 113.1 123.2 133.2 129L133.3 129C147.8 133.1 161.4 135.2 174 135.8C182.2 162.9 186.4 189 203.3 214.5C205.3 255.3 199.3 287.1 192.4 326.4C163.2 322.1 133.7 312.6 103.4 295.9L99.23 314C206.4 370.9 305.3 343 412.4 312.4L408.3 294.8C342.4 313.7 282.1 331.1 221.8 329C230.4 291.8 236.1 254.6 239.5 217.3C284.9 233.1 316.5 249.7 344 276.7L360.5 261C334.9 231.6 292.1 203.6 248.7 185.1C242 162.4 236 146 235.5 123.8C247.5 117.8 257.8 110 266.3 100.9C282.2 83.97 286.7 63.21 291.7 42.6L274.3 38.3Z" class="" fill="#fff" fill-opacity="1" stroke="#ffffff" stroke-opacity="1" stroke-width="15"></path><path d="M187.1 44.97C186.2 44.97 185.4 45.06 184.5 45.23C179.9 46.14 175.9 49.46 173.1 55.38C170.2 61.33 169 69.59 170.8 78.32C172.5 87.05 176.7 94.28 181.6 98.7C186.5 103 191.5 104.6 196.1 103.7C200.7 102.8 204.7 99.43 207.5 93.57C210.4 87.6 211.5 79.32 209.8 70.59C208.1 61.86 203.9 54.65 199 50.25C195 46.67 191 44.99 187.1 44.97Z" class="selected" fill="#ffffff" fill-opacity="1" stroke="#ffffff" stroke-opacity="1" stroke-width="12"></path><path d="M25 297L25 487L40.84 487L84.69 297L25 297Z" class="" fill="#ffffff" fill-opacity="0"></path><path d="M427.3 297L471.2 487L487 487L487 297L427.3 297Z" class="" fill="#ffffff" fill-opacity="0"></path></g></g></svg>